Coordinates
version=1
nRows=13
nColumns=38
inDegrees=no

Units are S.I. units (second, meters, Newtons, ...)
If the header above contains a line with 'inDegrees', this indicates whether rotational values are in degrees (yes) or radians (no).

endheader
time	pelvis_tilt	pelvis_list	pelvis_rotation	pelvis_tx	pelvis_ty	pelvis_tz	hip_flexion_r	hip_adduction_r	hip_rotation_r	knee_angle_r	ankle_angle_r	subtalar_angle_r	mtp_angle_r	hip_flexion_l	hip_adduction_l	hip_rotation_l	knee_angle_l	ankle_angle_l	subtalar_angle_l	mtp_angle_l	lumbar_extension	lumbar_bending	lumbar_rotation	arm_flex_r	arm_add_r	arm_rot_r	elbow_flex_r	pro_sup_r	wrist_flex_r	wrist_dev_r	arm_flex_l	arm_add_l	arm_rot_l	elbow_flex_l	pro_sup_l	wrist_flex_l	wrist_dev_l
0.85	-0.226153	-0.0143556	0.00711152	0.723568	0.94848	-0.332972	1.02067	-0.0356012	-0.145074	-2.18933	0.130419	0.00521278	0.00300839	0.234758	-0.0474116	-0.183307	-0.739747	0.392187	0.0170338	0.0012027	0.0191087	-0.00602639	-0.228414	-0.447215	-0.344172	0.152291	1.01466	1.33054	0.0338441	-0.0330095	-0.0245673	-0.717688	0.266198	2.0188	1.45363	0.0274995	-0.0146651
0.86	-0.214922	-0.0289629	-0.00258619	0.726222	0.955068	-0.332238	1.04732	-0.0172335	-0.145244	-2.10234	0.143934	0.00521278	0.00300839	0.136034	-0.0647229	-0.204473	-0.669492	0.295738	0.0170338	0.0012027	0.0108235	0.0155351	-0.235445	-0.481988	-0.352208	0.138997	1.03124	1.33628	0.0338441	-0.0330095	0.00214102	-0.69995	0.246392	2.06494	1.44879	0.0274995	-0.0146651
0.87	-0.206878	-0.0433723	-0.0123312	0.729214	0.961698	-0.331504	1.0659	-0.000448687	-0.146499	-2.00102	0.154614	0.00521278	0.00300839	0.0464052	-0.0807486	-0.226829	-0.603949	0.186086	0.0170338	0.0012027	0.00660743	0.0370854	-0.240916	-0.517291	-0.360108	0.122515	1.05112	1.34698	0.0338441	-0.0330095	0.0240172	-0.68251	0.230217	2.11236	1.44203	0.0274995	-0.0146651
0.88	-0.202946	-0.0565261	-0.0217954	0.73219	0.96793	-0.33083	1.07756	0.0142669	-0.147881	-1.88645	0.162148	0.00521278	0.00300839	-0.0298699	-0.0943713	-0.248259	-0.549458	0.0710488	0.0170338	0.0012027	0.00684176	0.0574982	-0.245208	-0.551847	-0.367366	0.103589	1.07247	1.36172	0.0338441	-0.0330095	0.0416862	-0.666348	0.219175	2.15973	1.43584	0.0274995	-0.0146651
0.89	-0.203286	-0.0673349	-0.0307568	0.734859	0.973469	-0.330287	1.08269	0.0265183	-0.148435	-1.75947	0.166421	0.00521278	0.00300839	-0.0903056	-0.104517	-0.26663	-0.511183	-0.0410219	0.0170338	0.0012027	0.0111572	0.0756139	-0.248663	-0.584267	-0.373579	0.0833004	1.09369	1.37874	0.0338441	-0.0330095	0.0555764	-0.652216	0.214093	2.20533	1.43263	0.0274995	-0.0146651
0.9	-0.207354	-0.0748367	-0.0391412	0.73704	0.978162	-0.329932	1.0811	0.0361099	-0.147418	-1.62096	0.167443	0.00521278	0.00300839	-0.134284	-0.110388	-0.280248	-0.492694	-0.142389	0.0170338	0.0012027	0.0185963	0.0904453	-0.25149	-0.613206	-0.378477	0.0629017	1.11352	1.39584	0.0338441	-0.0330095	0.0658559	-0.640541	0.215118	2.24714	1.4342	0.0274995	-0.0146651
0.91	-0.214027	-0.0784455	-0.0470265	0.738685	0.981962	-0.329777	1.07223	0.0431202	-0.144478	-1.47227	0.165265	0.00521278	0.00300839	-0.162845	-0.111685	-0.288352	-0.495791	-0.227052	0.0170338	0.0012027	0.0278517	0.101336	-0.253707	-0.637494	-0.381939	0.0436352	1.13106	1.41084	0.0338441	-0.0330095	0.072435	-0.631381	0.221792	2.28293	1.44122	0.0274995	-0.0146651
0.92	-0.221881	-0.078103	-0.0546195	0.739859	0.984874	-0.329766	1.05557	0.0478796	-0.139779	-1.31576	0.1599	0.00521278	0.00300839	-0.178247	-0.108783	-0.291438	-0.52062	-0.291519	0.0170338	0.0012027	0.0374854	0.108069	-0.255135	-0.656257	-0.383992	0.0265564	1.14581	1.42197	0.0338441	-0.0330095	0.0750301	-0.624432	0.233196	2.31045	1.45292	0.0274995	-0.0146651
0.93	-0.229446	-0.0742907	-0.0621964	0.74069	0.986902	-0.329797	1.03107	0.050876	-0.134028	-1.15516	0.151336	0.00521278	0.00300839	-0.183393	-0.102783	-0.291254	-0.566012	-0.335014	0.0170338	0.0012027	0.0461449	0.110917	-0.255442	-0.668972	-0.384803	0.0123993	1.15762	1.42807	0.0338441	-0.0330095	0.073271	-0.619099	0.248103	2.32769	1.46724	0.0274995	-0.0146651
0.94	-0.235497	-0.0678702	-0.0700403	0.741328	0.988024	-0.329743	0.999442	0.0526481	-0.128386	-0.995826	0.139651	0.00521278	0.00300839	-0.181265	-0.0954113	-0.290369	-0.629917	-0.35909	0.0170338	0.0012027	0.05271	0.110621	-0.25421	-0.675472	-0.384646	0.00150575	1.16671	1.42885	0.0338441	-0.0330095	0.0668375	-0.614608	0.265164	2.33307	1.48127	0.0274995	-0.0146651
0.95	-0.239174	-0.0599378	-0.0784032	0.741895	0.988213	-0.329496	0.962342	0.053714	-0.124199	-0.84453	0.125226	0.00521278	0.00300839	-0.174426	-0.0887178	-0.29141	-0.709807	-0.366832	0.0170338	0.0012027	0.0564201	0.108268	-0.250997	-0.675883	-0.38386	-0.00616869	1.17351	1.4248	0.0338441	-0.0330095	0.055599	-0.610154	0.283078	2.32561	1.4919	0.0274995	-0.0146651
0.96	-0.240094	-0.0516866	-0.0874707	0.742439	0.987439	-0.329002	0.922259	0.0545733	-0.122622	-0.708859	0.108978	0.00521278	0.00300839	-0.164647	-0.0846817	-0.296262	-0.803031	-0.361912	0.0170338	0.0012027	0.0569301	0.105115	-0.245395	-0.670499	-0.382792	-0.010966	1.17856	1.41704	0.0338441	-0.0330095	0.0397201	-0.605032	0.300722	2.30495	1.4968	0.0274995	-0.0146651
0.97	-0.238353	-0.0442543	-0.0973344	0.742932	0.985698	-0.328254	0.882192	0.0557612	-0.124176	-0.596267	0.0925475	0.00521278	0.00300839	-0.152728	-0.0848348	-0.305505	-0.907053	-0.347814	0.0170338	0.0012027	0.0542779	0.102412	-0.237072	-0.659656	-0.381745	-0.0134016	1.18237	1.40706	0.0338441	-0.0330095	0.0197106	-0.598741	0.317251	2.27134	1.495	0.0274995	-0.0146651
